<?xml version="1.0" encoding="UTF-8" standalone="no"?>
<!-- Created with Inkscape (http://www.inkscape.org/) -->

<svg
   xmlns:dc="http://purl.org/dc/elements/1.1/"
   xmlns:cc="http://creativecommons.org/ns#"
   xmlns:rdf="http://www.w3.org/1999/02/22-rdf-syntax-ns#"
   xmlns:svg="http://www.w3.org/2000/svg"
   xmlns="http://www.w3.org/2000/svg"
   xmlns:sodipodi="http://sodipodi.sourceforge.net/DTD/sodipodi-0.dtd"
   xmlns:inkscape="http://www.inkscape.org/namespaces/inkscape"
   width="50mm"
   height="50mm"
   viewBox="0 0 50 50"
   version="1.1"
   id="svg10547"
   inkscape:version="0.92.1 r"
   sodipodi:docname="logo.svg"
   inkscape:export-filename="./logo.png"
   inkscape:export-xdpi="76.199997"
   inkscape:export-ydpi="76.199997">
  <defs
     id="defs10541" />
  <sodipodi:namedview
     id="base"
     pagecolor="#ffffff"
     bordercolor="#666666"
     borderopacity="1.0"
     inkscape:pageopacity="0.0"
     inkscape:pageshadow="2"
     inkscape:zoom="1.979899"
     inkscape:cx="150.25231"
     inkscape:cy="59.905284"
     inkscape:document-units="mm"
     inkscape:current-layer="layer1"
     showgrid="false"
     fit-margin-top="0"
     fit-margin-left="0"
     fit-margin-right="0"
     fit-margin-bottom="0"
     inkscape:window-width="1920"
     inkscape:window-height="1016"
     inkscape:window-x="0"
     inkscape:window-y="27"
     inkscape:window-maximized="1" />
  <metadata
     id="metadata10544">
    <rdf:RDF>
      <cc:Work
         rdf:about="">
        <dc:format>image/svg+xml</dc:format>
        <dc:type
           rdf:resource="http://purl.org/dc/dcmitype/StillImage" />
        <dc:title></dc:title>
      </cc:Work>
    </rdf:RDF>
  </metadata>
  <g
     inkscape:label="Layer 1"
     inkscape:groupmode="layer"
     id="layer1"
     transform="translate(-48.893568,-112.99818)">
    <g
       id="g11156"
       transform="matrix(2.0946838,0,0,2.0946838,-165.2121,-170.59364)">
      <rect
         rx="2.1383822e-18"
         y="135.38646"
         x="102.21384"
         height="23.869951"
         width="23.869951"
         id="rect9782-8-7-7-3-2"
         style="opacity:1;fill:#ffffff;fill-opacity:1;stroke:none;stroke-width:0.50300002;stroke-linecap:round;stroke-miterlimit:4;stroke-dasharray:none;stroke-dashoffset:0;stroke-opacity:1" />
      <g
         style="fill:#ff8080"
         transform="matrix(0.00383142,0,0,0.00383142,108.23511,185.71577)"
         id="g9780-4-1-1-9-8">
        <ellipse
           style="opacity:1;fill:#ff8080;fill-opacity:1;stroke:none;stroke-width:0.71913749;stroke-linecap:round;stroke-miterlimit:4;stroke-dasharray:none;stroke-dashoffset:0;stroke-opacity:1"
           id="path9400-6-3-7-1-0-4"
           cx="1611.936"
           cy="-9875.6074"
           rx="218.28125"
           ry="185.20833" />
        <ellipse
           style="opacity:1;fill:#ff8080;fill-opacity:1;stroke:none;stroke-width:0.71913749;stroke-linecap:round;stroke-miterlimit:4;stroke-dasharray:none;stroke-dashoffset:0;stroke-opacity:1"
           id="path9402-9-1-2-5-8-7"
           cx="2657.04"
           cy="-9895.4512"
           rx="132.29167"
           ry="185.20833" />
        <path
           style="fill:#ff8080;fill-opacity:1;stroke:none;stroke-width:0.26458332px;stroke-linecap:butt;stroke-linejoin:miter;stroke-opacity:1"
           d="m 940.99526,-9884.5525 c 111.66354,-24.4393 181.36604,-123.0805 272.40784,-183.3755 34.2267,-26.707 77.8251,-34.044 114.7286,-54.762 100.5656,-50.335 224.4219,-32.004 318.5498,-97.835 34.6626,-21.388 58.0573,-66.622 42.8533,-106.509 -22.8402,-45.364 -79.2223,-55.617 -124.7962,-62.613 -39.7864,-5.822 -80.0096,-1.325 -119.7253,-7.141 -125.754,-6.128 -241.0853,56.09 -343.7935,121.783 -98.7575,59.134 -203.98694,127.573 -249.77754,238.255 -16.6562,32.209 -18.4123,71.7812 3.6532,102.0002 18.6688,28.8273 51.0573,49.5996 85.8998,50.1973 z"
           id="path9412-3-4-7-9-8-2"
           inkscape:connector-curvature="0" />
        <path
           style="fill:#ff8080;fill-opacity:1;stroke:none;stroke-width:0.21247253px;stroke-linecap:butt;stroke-linejoin:miter;stroke-opacity:1"
           d="m 3033.5924,-9852.7322 c -72.0098,-24.4393 -116.9598,-123.0805 -175.6709,-183.3758 -22.0723,-26.707 -50.1882,-34.044 -73.9865,-54.762 -64.853,-50.335 -144.7257,-32.003 -205.4272,-97.834 -22.3533,-21.389 -37.4401,-66.623 -27.6352,-106.51 14.7291,-45.364 51.0889,-55.617 80.4786,-62.612 25.6577,-5.822 51.5969,-1.326 77.2088,-7.142 81.0967,-6.128 155.4718,56.09 221.7066,121.783 63.6868,59.134 131.5474,127.573 161.077,238.255 10.7413,32.2098 11.8739,71.7814 -2.3559,102.0005 -12.039,28.8273 -32.926,49.5995 -55.3953,50.1973 z"
           id="path9412-6-7-9-2-7-5-40"
           inkscape:connector-curvature="0" />
        <ellipse
           style="opacity:1;fill:#ff8080;fill-opacity:1;stroke:none;stroke-width:0.71913749;stroke-linecap:round;stroke-miterlimit:4;stroke-dasharray:none;stroke-dashoffset:0;stroke-opacity:1"
           id="path9441-4-2-2-7-0-6"
           cx="2645.8408"
           cy="-8750.3271"
           rx="133.30067"
           ry="161.36397" />
        <path
           style="fill:#ff8080;fill-opacity:1;stroke:none;stroke-width:0.26458332px;stroke-linecap:butt;stroke-linejoin:miter;stroke-opacity:1"
           d="m 2531.249,-8977.1726 c -172.1623,-50.034 -273.9327,-217.2475 -328.1215,-377.6313 -82.9339,-249.2562 -174.3159,-498.0552 -211.2068,-759.5161 -70.045,-225.737 -223.6655,-410.825 -326.2252,-621.037 -9.312,-79.937 74.771,-121.241 141.1912,-132.592 152.2037,-37.017 312.6759,-70.329 467.4661,-26.619 76.0728,23.025 149.0819,55.965 219.8709,91.848 62.2263,33.967 126.8235,109.982 93.8649,183.666 -56.4515,110.022 -141.8132,203.369 -186.3749,319.965 -69.5753,148.313 -84.2293,320.4665 -37.1329,477.6849 57.4053,245.4722 150.9834,480.1445 232.647,718.0737 4.9843,50.5886 -27.2071,97.0065 -65.9788,126.1578 z"
           id="path9443-5-0-6-6-9-2"
           inkscape:connector-curvature="0" />
        <path
           style="fill:#ff8080;fill-opacity:1;stroke:none;stroke-width:0.26458332px;stroke-linecap:butt;stroke-linejoin:miter;stroke-opacity:1"
           d="m 2465.768,-8406.5521 c -155.87,138.5081 -384.8253,149.7206 -577.3523,95.0942 -175.0248,-48.305 -341.3405,-128.1465 -492.3194,-228.4844 -82.8467,-59.7866 -168.7645,-140.3159 -181.6365,-246.8679 -3.1765,-89.2228 98.904,-25.9471 145.7317,-17.0071 228.5368,81.9676 422.7362,238.1197 654.9623,311.9715 145.4213,48.8643 297.8869,74.2241 450.6142,85.2937 z"
           id="path9460-2-6-1-7-6-9"
           inkscape:connector-curvature="0" />
        <path
           style="fill:#ff8080;fill-opacity:1;stroke:none;stroke-width:0.26458332px;stroke-linecap:butt;stroke-linejoin:miter;stroke-opacity:1"
           d="m 501.33686,-8949.1093 c -400.776,63.9704 -792.4533,261.04 -1039.0949,590.0806 -59.17131,81.0774 -117.92651,165.9679 -201.55069,223.9812 -83.38161,7.702 -10.74061,-106.5652 -15.10111,-152.6313 32.91511,-376.3015 298.1521,-714.263 644.776,-856.7573 132.781402,-89.6908 299.3697,-155.4297 460.7929,-116.074 94.6181,28.6454 152.322,126.3369 152.3997,222.1537 1.9267,29.7415 0.7618,59.6164 -2.2219,89.2471 z"
           id="path9473-5-8-0-3-3-9"
           inkscape:connector-curvature="0" />
        <path
           style="fill:#ff8080;fill-opacity:1;stroke:none;stroke-width:0.26458332px;stroke-linecap:butt;stroke-linejoin:miter;stroke-opacity:1"
           d="m -1006.467,-9093.0754 c 218.17106,-122.913 416.01386,-300.7503 670.37838,-343.668 166.94798,-29.7044 333.1244819,-65.8083 501.91108,-84.8297 59.5834,-12.8365 127.4582,-3.0014 182.0793,-26.6363 76.5194,-70.6167 104.9363,-190.5599 70.7817,-288.5587 -19.4842,-59.7151 -88.9515,-87.4249 -146.7779,-69.0573 -247.580198,58.9355 -514.8585,24.0491 -751.38128,131.3336 -210.23382,90.2552 -400.65312,250.3443 -485.32942,467.3883 -26.421,68.1273 -40.98116,140.9139 -41.66186,214.0281 z"
           id="path9507-4-9-6-6-8-0"
           inkscape:connector-curvature="0" />
        <path
           style="fill:#ff8080;fill-opacity:1;stroke:none;stroke-width:0.26458332px;stroke-linecap:butt;stroke-linejoin:miter;stroke-opacity:1"
           d="m 425.69896,-10084.83 c -343.870498,-118.949 -692.23979,-233.102 -1053.65351,-284.536 -116.43259,3.957 -213.67829,87.636 -330.82039,87.508 59.5281,-150.12 215.869,-223.68 340.65501,-311.3 142.92461,-81.916 311.9538,-38.932 465.98599,-24.104 243.030402,35.765 460.8804,158.578 696.9632,220.294 86.9827,98.409 -73.7582,187.095 -100.0279,281.189 l -9.3651,15.586 z"
           id="path9509-7-2-1-5-5-8"
           inkscape:connector-curvature="0" />
        <path
           style="fill:#ff8080;fill-opacity:1;stroke:none;stroke-width:0.26458332px;stroke-linecap:butt;stroke-linejoin:miter;stroke-opacity:1"
           d="m 716.48886,-10483.236 c 83.1676,-70.648 212.0443,-78.426 273.8435,-175.172 46.71734,-68.226 -31.7657,-128.077 -75.9398,-172.144 -58.5608,-47.528 -114.5287,-98.074 -169.8028,-149.054 -174.008,-138.356 -360.9599,-263.671 -564.4916,-354.041 -149.935998,-51.476 -320.60678,-95.986 -473.64678,-31.311 -46.4879,29.029 -99.1307,45.431 -140.47722,81.547 -52.8016,35.338 -25.25509,108.831 38.61142,78.307 117.01629,-28.588 236.30588,13.757 337.138482,71.726 274.444098,133.891 545.722098,301.976 724.749598,555.532 19.1285,30.151 36.0192,61.75 50.0152,94.61 z"
           id="path9511-4-6-5-6-6-1"
           inkscape:connector-curvature="0" />
        <path
           style="fill:#ff8080;fill-opacity:1;stroke:none;stroke-width:0.26458332px;stroke-linecap:butt;stroke-linejoin:miter;stroke-opacity:1"
           d="m 1254.7485,-10847.951 c 89.7313,-19.956 188.4561,-36.921 257.3363,-102.831 49.0046,-46.71 30.0021,-124.194 -13.7345,-166.89 -101.4193,-132.615 -192.7278,-272.666 -299.3952,-401.228 -111.4694,-139.905 -241.92024,-276.591 -414.95204,-336.847 -112.368,-43.183 -244.2331,-59.157 -355.4913,-3.948 33.4756,94.832 134.9478,131.833 216.3647,175.104 69.2796,34.567 125.6224,88.787 182.6126,140.086 197.42934,193.948 296.22994,458.608 427.25944,696.554 z"
           id="path9513-4-6-9-3-1-3"
           inkscape:connector-curvature="0" />
        <path
           style="fill:#ff8080;fill-opacity:1;stroke:none;stroke-width:0.26458332px;stroke-linecap:butt;stroke-linejoin:miter;stroke-opacity:1"
           d="m 1777.3005,-11013.315 c 107.1549,-27.488 221.7158,25.664 325.8566,-20.394 65.2031,-77.618 -12.8281,-173.262 -21.2794,-257.203 -42.0994,-168.699 -95.2439,-336.496 -181.1858,-488.494 -19.0448,-138.097 -157.6954,-212.977 -280.0577,-245.178 -60.8701,-11.167 -216.1538,-104.516 -164.2539,24.897 49.9817,89.43 164.1078,134.494 181.8226,242.967 89.5935,232.749 137.5895,481.338 138.2827,730.781 z"
           id="path9515-3-4-4-9-1-1"
           inkscape:connector-curvature="0" />
        <path
           style="fill:#ff8080;fill-opacity:1;stroke:none;stroke-width:0.26458332px;stroke-linecap:butt;stroke-linejoin:miter;stroke-opacity:1"
           d="m 2392.4568,-11019.93 c 85.0095,27.104 167.4831,86.33 260.8148,67.084 53.3961,-23.193 56.1639,-87.987 67.9183,-136.988 51.9882,-161.189 68.7128,-339.919 173.6688,-479.065 44.2672,-80.699 112.8107,-143.97 182.9927,-202.043 23.6665,-29.173 62.3843,-47.552 75.3848,-84.249 -18.2742,-32.015 -69.0292,-12.213 -101.0219,-21.535 -91.4066,-7.469 -188.0663,-28.879 -275.1992,11.437 -62.4602,24.584 -85.5159,91.359 -121.7692,141.858 -58.638,84.151 -108.4392,174.22 -145.0228,270.145 -55.3466,139.268 -96.7658,284.881 -117.7663,433.356 z"
           id="path9517-0-9-9-4-5-1"
           inkscape:connector-curvature="0" />
        <path
           style="fill:#ff8080;fill-opacity:1;stroke:none;stroke-width:0.26458332px;stroke-linecap:butt;stroke-linejoin:miter;stroke-opacity:1"
           d="m 2881.9359,-10801.649 c 98.3025,67.398 142.7695,314.929 295.7267,229.489 76.9731,-77.608 136.6366,-173.934 233.3998,-230.861 119.1747,-84.455 270.7148,-97.278 410.8212,-71.617 77.3758,-5.503 309.8321,98.749 238.3393,-54.403 -62.8701,-101.143 -160.3026,-161.979 -276.1107,-186.845 -174.6803,-67.47 -392.2038,-98.683 -555.0445,13.746 -124.1227,90.233 -224.8728,207.997 -347.1318,300.491 z"
           id="path9519-7-5-0-8-9-0"
           inkscape:connector-curvature="0" />
        <path
           style="fill:#ff8080;fill-opacity:1;stroke:none;stroke-width:0.26458332px;stroke-linecap:butt;stroke-linejoin:miter;stroke-opacity:1"
           d="m 3199.4359,-10345.243 c 44.046,97.017 8.4254,414.5132 185.1253,277.879 142.7832,-110.12 325.8269,-99.41 490.8529,-60.263 101.0163,1.248 231.1164,126.882 304.8021,77.17 16.2097,-143.253 -128.7804,-227.476 -222.9327,-307.65 -187.3017,-148.612 -456.2165,-145.851 -666.9116,-54.382 -30.3842,22.302 -57.753,48.916 -90.936,67.246 z"
           id="path9521-8-0-9-1-8-3"
           inkscape:connector-curvature="0" />
        <path
           style="fill:#ff8080;fill-opacity:1;stroke:none;stroke-width:0.26458332px;stroke-linecap:butt;stroke-linejoin:miter;stroke-opacity:1"
           d="m 3331.7276,-9835.9196 c 16.5558,96.3633 -34.0323,190.6708 -17.3778,286.8869 5.3739,32.1438 33.569,61.9936 68.2408,57.2627 84.8786,-7.7426 171.1266,-36.7674 256.319,-15.2431 114.5596,36.7152 234.5918,64.4675 337.0779,130.425 22.7354,7.7406 52.6092,57.7186 62.2615,14.4915 26.974,-68.9126 -4.7498,-142.7698 -37.4161,-203.7962 -22.6137,-40.0453 -46.0597,-80.5892 -76.4802,-115.1316 -129.4318,-119.1357 -312.9206,-169.6036 -486.1864,-151.9178 -35.5121,1.3648 -70.9692,-1.8677 -106.4387,-2.9774 z"
           id="path9523-6-4-1-2-4-4"
           inkscape:connector-curvature="0" />
        <path
           style="fill:#ff8080;fill-opacity:1;stroke:none;stroke-width:0.26458332px;stroke-linecap:butt;stroke-linejoin:miter;stroke-opacity:1"
           d="m 3345.0848,-9211.0333 c -30.0164,66.4112 -48.5135,143.6317 -28.4559,215.5111 10.9754,42.5434 53.0889,71.9261 96.7113,69.0581 25.7021,0.5339 50.6941,-11.0369 75.91,-1.2661 93.3439,20.7254 162.8846,92.7053 220.9469,164.2203 40.6524,49.2281 78.1272,101.5587 125.0995,145.1509 79.733,-114.5145 73.4502,-275.636 1.5042,-392.294 -81.6721,-122.2695 -219.7846,-207.0004 -366.7713,-219.61 -42.3262,0.019 -84.3311,7.7066 -124.9447,19.2297 z"
           id="path9525-8-8-7-9-8-0"
           inkscape:connector-curvature="0" />
      </g>
    </g>
  </g>
</svg>
